<?xml version="1.0" encoding="UTF-8" standalone="no"?>
<svg
   id="Ebene_1"
   data-name="Ebene 1"
   viewBox="0 0 348.36 500"
   version="1.1"
   sodipodi:docname="waph-logo.svg"
   width="348.35999"
   height="500"
   inkscape:version="1.3.2 (091e20e, 2023-11-25)"
   xmlns:inkscape="http://www.inkscape.org/namespaces/inkscape"
   xmlns:sodipodi="http://sodipodi.sourceforge.net/DTD/sodipodi-0.dtd"
   xmlns="http://www.w3.org/2000/svg"
   xmlns:svg="http://www.w3.org/2000/svg">
  <sodipodi:namedview
     id="namedview30"
     pagecolor="#ffffff"
     bordercolor="#000000"
     borderopacity="0.25"
     inkscape:showpageshadow="2"
     inkscape:pageopacity="0.0"
     inkscape:pagecheckerboard="0"
     inkscape:deskcolor="#d1d1d1"
     inkscape:zoom="1.7882852"
     inkscape:cx="174.18922"
     inkscape:cy="65.985001"
     inkscape:window-width="1312"
     inkscape:window-height="449"
     inkscape:window-x="0"
     inkscape:window-y="25"
     inkscape:window-maximized="0"
     inkscape:current-layer="Ebene_1" />
  <defs
     id="defs1">
    <style
       id="style1">.cls-1{fill:#641122;}.cls-2{fill:#fcf08f;}</style>
  </defs>
  <path
     class="cls-1"
     d="M 9.32,2.64 C 5.9,2.57 3.92,5.19 4.92,8.45 l 35,114.36 a 8.93,8.93 0 0 0 8,5.93 L 337,128.52 a 6.16,6.16 0 0 0 6.15,-6.22 l -1,-107 A 6.44,6.44 0 0 0 335.94,9 Z"
     id="path1" />
  <path
     class="cls-2"
     d="M 89.61,51.69 82.2,34.74 a 44.3,44.3 0 0 0 -2,-4.11 h 2 c 0.3,1 0.84,2.25 1.47,3.69 l 6.24,14.46 3.78,-9 -2.13,-5 a 34.76,34.76 0 0 0 -2,-4.17 h 1.92 a 41.23,41.23 0 0 0 1.62,4.05 l 1.35,3.24 1.44,-3.39 c 0.84,-2 1.2,-2.88 1.56,-3.9 h 1.77 c -0.3,0.51 -1,2 -2,4.2 L 95.16,39.6 99,48.75 105,34.5 c 1,-2.19 1.29,-3.15 1.56,-3.87 h 1.77 c -0.48,1.08 -1,2 -1.92,4.2 l -7.29,16.86 h -0.27 l -4.47,-10.32 -4.5,10.32 z"
     id="path2" />
  <path
     class="cls-2"
     d="m 111.48,48 c 0,1.14 0,2.55 0.09,3.15 h -1.68 c 0.06,-0.66 0.09,-2.07 0.09,-3.15 v -9.06 h -1.35 a 4.38,4.38 0 0 0 0.78,-1 h 2.16 c -0.06,0.69 -0.09,2 -0.09,3.12 z m -0.81,-15.12 a 1,1 0 1 1 0,2 1,1 0 0 1 0,-2 z"
     id="path3" />
  <path
     class="cls-2"
     d="m 116.4,44 a 5.44,5.44 0 0 0 5.19,6.15 6.6,6.6 0 0 0 4.32,-1.23 v 1.68 c -1,0.12 -1.83,0.81 -4.5,0.81 a 6.55,6.55 0 0 1 -6.57,-6.81 c 0,-4 2.73,-6.87 6.18,-6.87 4.2,0 6,4 6,6 0,0.12 0,0.24 0,0.3 z m 0.12,-1.14 h 8.85 a 4.53,4.53 0 0 0 -4.35,-4 4.84,4.84 0 0 0 -4.5,4.01 z"
     id="path4" />
  <path
     class="cls-2"
     d="m 135.42,38.94 c -2,0 -3.6,1.65 -3.6,4.17 V 48 c 0,0.87 0,2.25 0.09,3.15 h -1.68 c 0.06,-0.9 0.09,-2.28 0.09,-3.15 V 38.94 H 129 a 6.14,6.14 0 0 0 0.78,-1 h 2.07 v 2.22 a 4.46,4.46 0 0 1 4.08,-2.46 c 2.73,0 4.53,2 4.53,5.64 V 48 c 0,0.87 0,2.25 0.12,3.15 h -1.71 c 0.09,-0.9 0.12,-2.28 0.12,-3.15 v -4.71 c 0.01,-3.06 -1.77,-4.35 -3.57,-4.35 z"
     id="path5" />
  <path
     class="cls-2"
     d="m 145.2,44 a 5.44,5.44 0 0 0 5.19,6.15 6.6,6.6 0 0 0 4.32,-1.23 v 1.68 c -1,0.12 -1.83,0.81 -4.5,0.81 a 6.55,6.55 0 0 1 -6.57,-6.81 c 0,-4 2.73,-6.87 6.18,-6.87 4.2,0 6,4 6,6 0,0.12 0,0.24 0,0.3 z m 0.12,-1.14 h 8.85 a 4.53,4.53 0 0 0 -4.35,-4 4.84,4.84 0 0 0 -4.5,4.01 z"
     id="path6" />
  <path
     class="cls-2"
     d="m 165.84,37.86 v 1.74 a 3.38,3.38 0 0 0 -1.89,-0.51 c -1.65,0 -3.3,2.1 -3.3,4.47 v 4.5 c 0,1 0,2.07 0.12,3.12 h -1.71 c 0.06,-1 0.09,-2.1 0.09,-3.12 v -9.12 h -1.29 a 4.52,4.52 0 0 0 0.72,-1 h 2 V 41 a 4,4 0 0 1 3.54,-3.27 c 0.88,-0.02 1.27,0.13 1.72,0.13 z"
     id="path7" />
  <path
     class="cls-2"
     d="m 126.92,78.32 c -0.33,-1 -0.84,-2.22 -1.5,-3.78 l -1.77,-4.2 h -8.16 l -1.71,4.17 a 36.59,36.59 0 0 0 -1.44,3.81 h -1.92 c 0.69,-1.29 1.41,-2.91 2.1,-4.56 l 6.9,-16.38 h 0.48 l 6.93,16.38 c 0.72,1.65 1.5,3.33 2.16,4.56 z M 119.57,60.38 116,69.05 h 7.08 z"
     id="path8" />
  <path
     class="cls-2"
     d="m 133,71.51 c 4.29,-4.89 4.83,-5.55 5.49,-6.45 h 1.92 c -0.81,0.72 -1.95,2 -5.79,6.36 a 83.27,83.27 0 0 0 6.75,6.9 h -2.22 C 138.49,77.48 137.44,76.4 133,71.75 v 3.45 c 0,1.11 0,2.43 0.09,3.12 h -1.68 c 0.06,-0.69 0.09,-2.1 0.09,-3.12 V 57.29 h -1.35 a 4.31,4.31 0 0 0 0.75,-1 h 2.19 c -0.06,0.72 -0.09,2.13 -0.09,3.12 z"
     id="path9" />
  <path
     class="cls-2"
     d="m 143.57,67.43 v -1.71 a 10.68,10.68 0 0 1 3.54,-0.87 c 3.21,0 4.86,1.77 4.86,5.82 v 5.64 c 0,0.9 0.33,1.11 0.75,1.11 a 1.39,1.39 0 0 0 0.63,-0.15 v 1 a 2.24,2.24 0 0 1 -1.32,0.36 c -0.72,0 -1.38,-0.45 -1.44,-1.62 a 4.18,4.18 0 0 1 -3.48,1.62 c -2.85,0 -4.47,-1.65 -4.47,-3.81 0,-2.16 1.62,-3.82 4.53,-3.82 a 3.92,3.92 0 0 1 3.36,1.53 v -2 c 0,-2.4 -0.87,-4.38 -3.66,-4.38 a 4.23,4.23 0 0 0 -3.3,1.28 z m 3.84,10.08 a 2.75,2.75 0 1 0 0,-5.43 c -2.1,0 -3.24,1.23 -3.24,2.7 0,1.47 1.14,2.73 3.24,2.73 z"
     id="path10" />
  <path
     class="cls-2"
     d="m 168.74,75.2 c 0,1.44 0,2.4 0.09,3.12 h -1.68 c 0.06,-0.6 0.09,-1.35 0.09,-3 a 5.91,5.91 0 0 1 -5.24,3.21 6.7,6.7 0 0 1 -6.57,-6.9 6.57,6.57 0 0 1 6.63,-6.78 5.55,5.55 0 0 1 5.18,3.15 V 57.29 h -1.35 a 3.44,3.44 0 0 0 0.78,-1 h 2.16 c -0.06,0.9 -0.09,1.71 -0.09,2.49 z m -6.51,-9.06 a 5.56,5.56 0 0 0 0,11.1 5.57,5.57 0 0 0 0,-11.1 z"
     id="path11" />
  <path
     class="cls-2"
     d="m 173.66,71.15 a 5.44,5.44 0 0 0 5.19,6.15 6.6,6.6 0 0 0 4.32,-1.23 v 1.68 c -1,0.12 -1.83,0.81 -4.5,0.81 a 6.55,6.55 0 0 1 -6.57,-6.81 c 0,-4 2.73,-6.87 6.18,-6.87 4.2,0 6,4 6,6 0,0.12 0,0.24 0,0.3 z m 0.12,-1.14 h 8.85 a 4.53,4.53 0 0 0 -4.35,-4 4.84,4.84 0 0 0 -4.5,3.99 z"
     id="path12" />
  <path
     class="cls-2"
     d="M 195.26,75.17 V 70 c 0,-2.34 -0.84,-3.93 -3.09,-3.93 -1.56,0 -3.09,1.38 -3.09,4.08 v 5 c 0,1 0,2.43 0.09,3.15 h -1.68 c 0.06,-0.72 0.09,-2.13 0.09,-3.15 v -9.07 h -1.35 a 5.27,5.27 0 0 0 0.81,-1 h 2 v 2.1 a 3.71,3.71 0 0 1 3.57,-2.34 3.56,3.56 0 0 1 3.78,2.79 3.82,3.82 0 0 1 3.78,-2.79 c 2.82,0 4.26,1.86 4.26,5.31 v 5 c 0,1 0,2.37 0.09,3.15 h -1.65 c 0.06,-0.81 0.06,-2.22 0.06,-3.15 v -4.9 c 0,-2.94 -1.11,-4.17 -3.06,-4.17 -1.68,0 -3.15,1.56 -3.15,4 v 5.07 c 0,1.08 0,2.49 0.09,3.15 h -1.68 c 0.1,-0.67 0.13,-1.96 0.13,-3.13 z"
     id="path13" />
  <path
     class="cls-2"
     d="m 210.26,75.17 c 0,1.14 0,2.55 0.09,3.15 h -1.68 c 0.06,-0.66 0.09,-2.07 0.09,-3.15 v -9.09 h -1.35 a 4.38,4.38 0 0 0 0.78,-1 h 2.16 c -0.06,0.69 -0.09,2 -0.09,3.12 z m -0.81,-15.12 a 1,1 0 1 1 0,2 1,1 0 0 1 0,-2 z"
     id="path14" />
  <path
     class="cls-2"
     d="M 220.85,75.14 A 3.52,3.52 0 0 1 217,78.68 11.32,11.32 0 0 1 213.58,77.9 v -2.34 a 3.81,3.81 0 0 0 3.42,1.92 2.21,2.21 0 0 0 2.4,-2.25 c 0,-3.18 -5.37,-3.09 -5.37,-7 0,-1.89 1.35,-3.33 3.72,-3.33 a 20.59,20.59 0 0 1 2.76,0.48 v 2.02 a 3.23,3.23 0 0 0 -2.7,-1.38 2,2 0 0 0 -2.25,2.07 c -0.05,3 5.29,2.82 5.29,7.05 z"
     id="path15" />
  <path
     class="cls-2"
     d="m 230.09,77.21 a 4.68,4.68 0 0 0 3.18,-0.84 v 1.77 a 18.42,18.42 0 0 1 -3.24,0.39 6.84,6.84 0 0 1 0,-13.68 c 1.41,0 2.16,0.3 3.18,0.36 V 67 a 4.88,4.88 0 0 0 -3.12,-0.87 5.53,5.53 0 0 0 0,11 z"
     id="path16" />
  <path
     class="cls-2"
     d="m 245,70.55 c 0,-2.73 -1.32,-4.44 -3.51,-4.44 -2.37,0 -3.63,2 -3.63,4.41 v 4.68 c 0,1 0,2.43 0.09,3.12 h -1.68 c 0.06,-0.69 0.09,-2.13 0.09,-3.12 V 57.29 H 235 a 12.58,12.58 0 0 0 0.78,-1 h 2.16 c -0.06,0.75 -0.09,2 -0.09,3.12 v 7.86 a 4.39,4.39 0 0 1 4.08,-2.43 c 3.06,0 4.56,2.4 4.56,5.73 v 4.63 c 0,1 0,2.43 0.09,3.12 h -1.68 c 0,-0.69 0.09,-2.13 0.09,-3.12 z"
     id="path17" />
  <path
     class="cls-2"
     d="m 251.24,71.15 a 5.44,5.44 0 0 0 5.19,6.15 6.6,6.6 0 0 0 4.32,-1.23 v 1.68 c -1,0.12 -1.83,0.81 -4.5,0.81 a 6.55,6.55 0 0 1 -6.57,-6.81 c 0,-4 2.73,-6.87 6.18,-6.87 4.2,0 6,4 6,6 0,0.12 0,0.24 0,0.3 z m 0.12,-1.14 h 8.85 a 4.53,4.53 0 0 0 -4.35,-4 4.84,4.84 0 0 0 -4.5,3.99 z"
     id="path18" />
  <path
     class="cls-2"
     d="m 84.94,101.09 c 0,2 0,4.44 0.09,5.37 h -1.77 c 0.09,-0.93 0.12,-3.33 0.12,-5.37 V 90.53 c 0,-2 0,-3.72 -0.12,-4.62 H 87 c 4,0 6.51,2.64 6.51,6.06 0,3.42 -2.79,6.09 -6.6,6.09 h -2 z m 0,-4.26 h 2 a 5,5 0 0 0 5,-4.89 4.71,4.71 0 0 0 -5,-4.8 h -2 z"
     id="path19" />
  <path
     class="cls-2"
     d="m 105.55,98.69 c 0,-2.73 -1.32,-4.44 -3.51,-4.44 -2.37,0 -3.63,2 -3.63,4.41 v 4.68 c 0,1 0,2.43 0.09,3.12 h -1.68 c 0.06,-0.69 0.09,-2.13 0.09,-3.12 V 85.43 h -1.35 a 12.58,12.58 0 0 0 0.78,-1 h 2.16 c -0.06,0.75 -0.09,2 -0.09,3.12 v 7.86 A 4.39,4.39 0 0 1 102.49,93 c 3.06,0 4.56,2.4 4.56,5.73 v 4.62 c 0,1 0,2.43 0.09,3.12 h -1.68 c 0,-0.69 0.09,-2.13 0.09,-3.12 z"
     id="path20" />
  <path
     class="cls-2"
     d="m 112.78,103.31 c 0,1.14 0,2.55 0.09,3.15 h -1.68 c 0.06,-0.66 0.09,-2.07 0.09,-3.15 v -9.09 h -1.35 a 4.38,4.38 0 0 0 0.78,-1 h 2.16 c -0.06,0.69 -0.09,2 -0.09,3.12 z M 112,88.19 a 1,1 0 1 1 0,2 1,1 0 0 1 0,-2 z"
     id="path21" />
  <path
     class="cls-2"
     d="m 118.63,103.34 c 0,1.11 0,2.43 0.09,3.12 H 117 c 0.06,-0.69 0.09,-2.1 0.09,-3.12 V 85.43 h -1.35 a 4.31,4.31 0 0 0 0.75,-1 h 2.19 c -0.06,0.72 -0.09,2.13 -0.09,3.12 z"
     id="path22" />
  <path
     class="cls-2"
     d="m 131.62,98.69 c 0,-2.73 -1.32,-4.44 -3.51,-4.44 -2.37,0 -3.63,2 -3.63,4.41 v 4.68 c 0,1 0,2.43 0.09,3.12 h -1.68 c 0.06,-0.69 0.09,-2.13 0.09,-3.12 V 85.43 h -1.35 a 12.58,12.58 0 0 0 0.78,-1 h 2.16 c -0.06,0.75 -0.09,2 -0.09,3.12 v 7.86 A 4.39,4.39 0 0 1 128.56,93 c 3.06,0 4.56,2.4 4.56,5.73 v 4.62 c 0,1 0,2.43 0.09,3.12 h -1.68 c 0,-0.69 0.09,-2.13 0.09,-3.12 z"
     id="path23" />
  <path
     class="cls-2"
     d="M 137.26,95.57 V 93.86 A 10.68,10.68 0 0 1 140.8,93 c 3.21,0 4.86,1.77 4.86,5.82 v 5.64 c 0,0.9 0.33,1.11 0.75,1.11 a 1.39,1.39 0 0 0 0.63,-0.15 v 1 a 2.24,2.24 0 0 1 -1.32,0.36 c -0.72,0 -1.38,-0.45 -1.44,-1.62 a 4.18,4.18 0 0 1 -3.48,1.62 c -2.85,0 -4.47,-1.65 -4.47,-3.81 0,-2.16 1.62,-3.87 4.53,-3.87 a 3.92,3.92 0 0 1 3.36,1.53 v -2 c 0,-2.4 -0.87,-4.38 -3.66,-4.38 a 4.23,4.23 0 0 0 -3.3,1.32 z m 3.84,10.08 a 2.75,2.75 0 1 0 0,-5.43 c -2.1,0 -3.24,1.23 -3.24,2.7 0,1.47 1.14,2.73 3.24,2.73 z"
     id="path24" />
  <path
     class="cls-2"
     d="m 156.85,93.14 v 1.74 a 3.38,3.38 0 0 0 -1.89,-0.51 c -1.65,0 -3.3,2.1 -3.3,4.47 v 4.5 c 0,1 0,2.07 0.12,3.12 h -1.71 c 0.06,-1 0.09,-2.1 0.09,-3.12 v -9.12 h -1.29 a 4.52,4.52 0 0 0 0.72,-1 h 2 v 3.06 A 4,4 0 0 1 155.11,93 c 0.89,0 1.29,0.14 1.74,0.14 z"
     id="path25" />
  <path
     class="cls-2"
     d="m 167.17,103.31 v -5.16 c 0,-2.34 -0.84,-3.93 -3.09,-3.93 -1.56,0 -3.09,1.38 -3.09,4.08 v 5 c 0,1 0,2.43 0.09,3.15 h -1.68 c 0.06,-0.72 0.09,-2.13 0.09,-3.15 v -9.08 h -1.35 a 5.27,5.27 0 0 0 0.81,-1 h 2 v 2.1 a 3.71,3.71 0 0 1 3.61,-2.32 3.56,3.56 0 0 1 3.78,2.79 3.82,3.82 0 0 1 3.78,-2.79 c 2.82,0 4.26,1.86 4.26,5.31 v 5 c 0,1 0,2.37 0.09,3.15 h -1.65 c 0.06,-0.81 0.06,-2.22 0.06,-3.15 v -4.92 c 0,-2.94 -1.11,-4.17 -3.06,-4.17 -1.68,0 -3.15,1.56 -3.15,4 v 5.07 c 0,1.08 0,2.49 0.09,3.15 h -1.68 c 0.06,-0.67 0.09,-1.96 0.09,-3.13 z"
     id="path26" />
  <path
     class="cls-2"
     d="m 186.37,93 a 6.84,6.84 0 1 1 -6.72,6.84 6.81,6.81 0 0 1 6.72,-6.84 z m 0,12.36 a 5.53,5.53 0 1 0 -5.25,-5.52 5.43,5.43 0 0 0 5.25,5.51 z"
     id="path27" />
  <path
     class="cls-2"
     d="m 201.73,94.22 c -2,0 -3.6,1.65 -3.6,4.17 v 4.92 c 0,0.87 0,2.25 0.09,3.15 h -1.68 c 0.06,-0.9 0.09,-2.28 0.09,-3.15 v -9.09 h -1.35 a 6.14,6.14 0 0 0 0.78,-1 h 2.07 v 2.22 A 4.46,4.46 0 0 1 202.21,93 c 2.73,0 4.53,2 4.53,5.64 v 4.71 c 0,0.87 0,2.25 0.12,3.15 h -1.71 c 0.09,-0.9 0.12,-2.28 0.12,-3.15 v -4.78 c 0,-3.06 -1.74,-4.35 -3.54,-4.35 z"
     id="path28" />
  <path
     class="cls-2"
     d="m 212.47,103.31 c 0,1.14 0,2.55 0.09,3.15 h -1.68 c 0.06,-0.66 0.09,-2.07 0.09,-3.15 v -9.09 h -1.35 a 4.38,4.38 0 0 0 0.78,-1 h 2.16 c -0.06,0.69 -0.09,2 -0.09,3.12 z m -0.81,-15.12 a 1,1 0 1 1 0,2 1,1 0 0 1 0,-2 z"
     id="path29" />
  <path
     class="cls-2"
     d="m 217.39,99.29 a 5.44,5.44 0 0 0 5.19,6.15 6.6,6.6 0 0 0 4.32,-1.23 v 1.68 c -1,0.12 -1.83,0.81 -4.5,0.81 a 6.55,6.55 0 0 1 -6.57,-6.81 c 0,-4 2.73,-6.87 6.18,-6.87 4.2,0 6,4 6,6 0,0.12 0,0.24 0,0.3 z m 0.12,-1.14 h 8.85 a 4.53,4.53 0 0 0 -4.35,-4 4.84,4.84 0 0 0 -4.5,4 z"
     id="path30" />
</svg>
